<?xml version="1.0" standalone="no"?>
<!DOCTYPE svg PUBLIC "-//W3C//DTD SVG 20010904//EN"
 "http://www.w3.org/TR/2001/REC-SVG-20010904/DTD/svg10.dtd">
<svg version="1.0" xmlns="http://www.w3.org/2000/svg"
 width="200.000000pt" height="200.000000pt" viewBox="0 0 200.000000 200.000000"
 preserveAspectRatio="xMidYMid meet">
<metadata>
Created by potrace 1.11, written by Peter Selinger 2001-2013
</metadata>
<g transform="translate(0.000000,200.000000) scale(0.100000,-0.100000)"
fill="#000000" stroke="none">
<path d="M622 1824 c-18 -9 -43 -31 -55 -48 l-22 -31 -3 -723 c-3 -801 -5
-767 62 -815 31 -22 34 -22 406 -22 372 0 375 0 406 22 67 48 64 16 64 803 0
787 3 755 -64 803 -31 22 -36 22 -396 24 -321 3 -369 1 -398 -13z m780 -53
c27 -24 32 -36 36 -90 l4 -61 -432 0 -432 0 4 60 c4 61 23 94 63 111 11 4 179
8 372 8 l353 1 32 -29z m38 -751 l0 -560 -430 0 -430 0 0 560 0 560 430 0 430
0 0 -560z m-2 -670 c-3 -60 -8 -74 -31 -98 l-27 -27 -365 -3 -364 -3 -33 29
c-30 27 -33 35 -36 101 l-4 71 432 0 432 0 -4 -70z"/>
<path d="M855 1720 c-4 -6 -1 -17 5 -26 10 -11 16 -12 26 -3 11 9 11 15 3 25
-14 17 -25 18 -34 4z"/>
<path d="M945 1709 c-15 -23 14 -30 111 -27 80 2 99 6 99 18 0 12 -19 16 -102
18 -67 2 -104 -1 -108 -9z"/>
<path d="M979 356 c-25 -18 -31 -47 -14 -72 27 -42 95 -22 95 28 0 41 -49 68
-81 44z"/>
</g>
</svg>
